<svg xmlns="http://www.w3.org/2000/svg" width="800" height="450" viewBox="0 0 800 450">
  <rect width="800" height="450" fill="#0a0a0f"/>
  <rect width="800" height="450" fill="url(#grad)"/>
  <defs>
    <linearGradient id="grad" x1="0%" y1="0%" x2="100%" y2="100%">
      <stop offset="0%" style="stop-color:#1a0533;stop-opacity:1"/>
      <stop offset="100%" style="stop-color:#0d1a2e;stop-opacity:1"/>
    </linearGradient>
  </defs>
  <!-- film strip lines -->
  <rect x="0" y="0" width="60" height="450" fill="#111118"/>
  <rect x="740" y="0" width="60" height="450" fill="#111118"/>
  <rect x="12" y="30" width="36" height="24" rx="3" fill="#1e1e28"/>
  <rect x="12" y="74" width="36" height="24" rx="3" fill="#1e1e28"/>
  <rect x="12" y="118" width="36" height="24" rx="3" fill="#1e1e28"/>
  <rect x="12" y="162" width="36" height="24" rx="3" fill="#1e1e28"/>
  <rect x="12" y="206" width="36" height="24" rx="3" fill="#1e1e28"/>
  <rect x="12" y="250" width="36" height="24" rx="3" fill="#1e1e28"/>
  <rect x="12" y="294" width="36" height="24" rx="3" fill="#1e1e28"/>
  <rect x="12" y="338" width="36" height="24" rx="3" fill="#1e1e28"/>
  <rect x="12" y="382" width="36" height="24" rx="3" fill="#1e1e28"/>
  <rect x="752" y="30" width="36" height="24" rx="3" fill="#1e1e28"/>
  <rect x="752" y="74" width="36" height="24" rx="3" fill="#1e1e28"/>
  <rect x="752" y="118" width="36" height="24" rx="3" fill="#1e1e28"/>
  <rect x="752" y="162" width="36" height="24" rx="3" fill="#1e1e28"/>
  <rect x="752" y="206" width="36" height="24" rx="3" fill="#1e1e28"/>
  <rect x="752" y="250" width="36" height="24" rx="3" fill="#1e1e28"/>
  <rect x="752" y="294" width="36" height="24" rx="3" fill="#1e1e28"/>
  <rect x="752" y="338" width="36" height="24" rx="3" fill="#1e1e28"/>
  <rect x="752" y="382" width="36" height="24" rx="3" fill="#1e1e28"/>
  <!-- glow circle -->
  <circle cx="400" cy="225" r="120" fill="none" stroke="#7c3aed" stroke-width="1" opacity="0.3"/>
  <circle cx="400" cy="225" r="80" fill="none" stroke="#a855f7" stroke-width="0.5" opacity="0.4"/>
  <!-- play icon -->
  <polygon points="375,190 375,260 440,225" fill="#a855f7" opacity="0.9"/>
  <!-- title -->
  <text x="400" y="330" font-family="Helvetica Neue, Arial, sans-serif" font-size="42" font-weight="800" fill="#ffffff" text-anchor="middle" letter-spacing="12">MOVION</text>
  <text x="400" y="358" font-family="Helvetica Neue, Arial, sans-serif" font-size="11" fill="#6b7280" text-anchor="middle" letter-spacing="5">OTT STREAMING SERVICE</text>
</svg>
